<svg width="150" height="150" viewBox="0 0 150 150" fill="none" xmlns="http://www.w3.org/2000/svg">
<path d="M150 75C150 116.421 116.421 150 75 150C33.5786 150 0 116.421 0 75C0 33.5786 33.5786 0 75 0C116.421 0 150 33.5786 150 75Z" fill="black"/>
<path d="M75.44 44.84C80.432 44.84 85.04 45.736 89.264 47.528C93.488 49.256 97.136 51.688 100.208 54.824C103.344 57.896 105.744 61.544 107.408 65.768C109.136 69.928 110 74.472 110 79.4C110 84.264 109.136 88.808 107.408 93.032C105.744 97.256 103.344 100.936 100.208 104.072C97.136 107.144 93.488 109.576 89.264 111.368C85.04 113.096 80.432 113.96 75.44 113.96C70.384 113.96 65.744 113.096 61.52 111.368C57.36 109.576 53.712 107.144 50.576 104.072C47.504 100.936 45.104 97.256 43.376 93.032C41.712 88.808 40.88 84.264 40.88 79.4C40.88 74.472 41.712 69.928 43.376 65.768C45.104 61.544 47.504 57.896 50.576 54.824C53.712 51.688 57.36 49.256 61.52 47.528C65.744 45.736 70.384 44.84 75.44 44.84ZM97.328 79.4C97.328 75.176 96.368 71.4 94.448 68.072C92.592 64.744 90.032 62.12 86.768 60.2C83.504 58.28 79.728 57.32 75.44 57.32C71.152 57.32 67.344 58.28 64.016 60.2C60.688 62.12 58.064 64.744 56.144 68.072C54.288 71.4 53.36 75.176 53.36 79.4C53.36 83.56 54.288 87.304 56.144 90.632C58.064 93.896 60.688 96.488 64.016 98.408C67.344 100.328 71.152 101.288 75.44 101.288C79.728 101.288 83.504 100.328 86.768 98.408C90.032 96.488 92.592 93.896 94.448 90.632C96.368 87.304 97.328 83.56 97.328 79.4ZM57.008 43.88L54.992 40.232L75.44 29.96L95.888 40.232L93.872 43.88L76.4 35.048H74.48L57.008 43.88Z" fill="white"/>
</svg>
